<?xml version="1.0" encoding="UTF-8"?>
<svg id="Layer_2" data-name="Layer 2" xmlns="http://www.w3.org/2000/svg" xmlns:xlink="http://www.w3.org/1999/xlink" viewBox="0 0 439.52 72.71">
  <defs>
    <style>
      .cls-1 {
        fill: url(#linear-gradient-8);
      }

      .cls-2 {
        fill: url(#linear-gradient-7);
      }

      .cls-3 {
        fill: url(#linear-gradient-5);
      }

      .cls-4 {
        fill: url(#linear-gradient-6);
      }

      .cls-5 {
        fill: url(#linear-gradient-9);
      }

      .cls-6 {
        fill: url(#linear-gradient-4);
      }

      .cls-7 {
        fill: url(#linear-gradient-3);
      }

      .cls-8 {
        fill: url(#linear-gradient-2);
      }

      .cls-9 {
        fill: url(#linear-gradient);
      }

      .cls-10 {
        fill: url(#linear-gradient-10);
      }
    </style>
    <linearGradient id="linear-gradient" x1="0" y1="40.84" x2="434.04" y2="40.84" gradientUnits="userSpaceOnUse">
      <stop offset="0" stop-color="#0cd"/>
      <stop offset="1" stop-color="#6439ff"/>
    </linearGradient>
    <linearGradient id="linear-gradient-2" x1=".03" y1="35.91" x2="434.07" y2="35.91" xlink:href="#linear-gradient"/>
    <linearGradient id="linear-gradient-3" x1=".03" y1="49.73" x2="434.07" y2="49.73" xlink:href="#linear-gradient"/>
    <linearGradient id="linear-gradient-4" x1=".03" y1="49.73" x2="434.07" y2="49.73" xlink:href="#linear-gradient"/>
    <linearGradient id="linear-gradient-5" x1=".03" y1="49.24" x2="434.07" y2="49.24" xlink:href="#linear-gradient"/>
    <linearGradient id="linear-gradient-6" x1=".03" y1="40.71" x2="434.07" y2="40.71" xlink:href="#linear-gradient"/>
    <linearGradient id="linear-gradient-7" x1=".03" y1="49.73" x2="434.07" y2="49.73" xlink:href="#linear-gradient"/>
    <linearGradient id="linear-gradient-8" x1=".03" y1="49.73" x2="434.07" y2="49.73" xlink:href="#linear-gradient"/>
    <linearGradient id="linear-gradient-9" x1=".03" y1="49.24" x2="434.07" y2="49.24" xlink:href="#linear-gradient"/>
    <linearGradient id="linear-gradient-10" x1=".03" y1="44.57" x2="434.07" y2="44.57" xlink:href="#linear-gradient"/>
  </defs>
  <g id="Layer_1-2" data-name="Layer 1">
    <g>
      <path class="cls-9" d="M0,41.95C0,23.02,14.67,8.98,35.55,8.98c7.64,0,16.53,2.22,20,4.44l.36,10.58-.89.18c-3.47-8.09-11.91-13.51-22.49-13.51-14.13,0-25.06,9.42-25.06,27.55-.09,16.71,10.04,32.71,28.53,32.71,9.6,0,17.07-5.07,20.53-14.67l.98.09-1.42,11.55c-4.18,2.31-12.62,4.8-22.58,4.8C13.07,72.71,0,61.33,0,41.95Z"/>
      <path class="cls-8" d="M64.62,70.66c2.67-.8,3.56-2.84,3.56-10.13V13.42c0-6.22-1.16-7.11-3.56-8.18v-.98l9.69-4.27.8.62v59.91c0,7.29.8,9.33,3.56,10.13v1.16h-14.04v-1.16Z"/>
      <path class="cls-7" d="M85.5,50.93c0-14.49,10.93-24.18,23.38-24.18,11.2,0,17.69,7.29,17.95,15.73h-34.75c-.18,1.33-.27,2.67-.27,4.09,0,12.18,7.56,20.53,19.11,20.53,6.84,0,11.73-3.11,15.82-7.73l.8.8c-4.53,6.22-11.47,12.53-20.98,12.53s-21.07-7.11-21.07-21.78ZM119.72,41.33c-.89-5.96-5.69-12.98-13.78-12.98-7.55-.09-12.18,5.51-13.6,12.98h27.38Z"/>
      <path class="cls-6" d="M163.72,69.15v-16c-2.76,10.93-10.22,19.55-19.02,19.55-6.58,0-12.44-4-12.44-11.64,0-9.24,9.33-12.71,19.91-15.64l11.55-3.11c-.44-8.62-4.89-12.62-12.44-12.62-5.33,0-10.49,2.49-14.93,7.91l-.8-.71c5.07-6.31,11.55-10.13,19.29-10.13,10.75,0,15.73,5.96,15.73,16v17.78c0,7.29.8,9.33,3.56,10.13v1.16h-7.73c-1.78,0-2.67-.98-2.67-2.67ZM147.99,67.46c9.51,0,15.64-12,15.73-21.33v-2.67l-11.2,3.02c-6.58,1.87-13.69,4.8-13.6,12.09,0,5.78,4,8.89,9.07,8.89Z"/>
      <path class="cls-3" d="M179.1,70.66c2.76-.8,3.56-2.84,3.56-10.13v-20.44c0-6.22-1.16-7.11-3.56-8.18v-.98l9.69-4.27.8.62v11.11c1.42-3.47,3.82-6.49,6.49-8.44,2.76-2.04,5.87-3.2,10.13-3.2,3.56,0,5.78.89,5.78,2.4,0,1.96-1.96,5.07-5.16,5.07-2.4,0-5.87-.98-11.11-2.49-2.58,1.87-5.78,6.84-6.04,11.11h-.09v17.69c0,7.29.8,9.33,3.56,10.13v1.16h-14.04v-1.16Z"/>
      <path class="cls-4" d="M218.12,70.66c2.67-.8,3.56-2.84,3.56-10.13V20.89c0-7.29-.89-9.33-3.56-10.13v-1.16h14.4v1.16c-2.76.8-3.56,2.84-3.56,10.13v17.24h33.86v-17.24c0-7.29-.89-9.33-3.56-10.13v-1.16h14.4v1.16c-2.76.8-3.56,2.84-3.56,10.13v39.64c0,7.29.8,9.33,3.56,10.13v1.16h-14.4v-1.16c2.67-.8,3.56-2.84,3.56-10.13v-20.98h-33.86v20.98c0,7.29.8,9.33,3.56,10.13v1.16h-14.4v-1.16Z"/>
      <path class="cls-2" d="M281.04,50.93c0-14.49,10.93-24.18,23.38-24.18,11.2,0,17.69,7.29,17.95,15.73h-34.75c-.18,1.33-.27,2.67-.27,4.09,0,12.18,7.56,20.53,19.11,20.53,6.84,0,11.73-3.11,15.82-7.73l.8.8c-4.53,6.22-11.47,12.53-20.98,12.53s-21.07-7.11-21.07-21.78ZM315.26,41.33c-.89-5.96-5.69-12.98-13.78-12.98-7.55-.09-12.18,5.51-13.6,12.98h27.38Z"/>
      <path class="cls-1" d="M359.26,69.15v-16c-2.76,10.93-10.22,19.55-19.02,19.55-6.58,0-12.44-4-12.44-11.64,0-9.24,9.33-12.71,19.91-15.64l11.55-3.11c-.44-8.62-4.89-12.62-12.44-12.62-5.33,0-10.49,2.49-14.93,7.91l-.8-.71c5.07-6.31,11.55-10.13,19.29-10.13,10.75,0,15.73,5.96,15.73,16v17.78c0,7.29.8,9.33,3.56,10.13v1.16h-7.73c-1.78,0-2.67-.98-2.67-2.67ZM343.53,67.46c9.51,0,15.64-12,15.73-21.33v-2.67l-11.2,3.02c-6.58,1.87-13.69,4.8-13.6,12.09,0,5.78,4,8.89,9.07,8.89Z"/>
      <path class="cls-5" d="M374.64,70.66c2.76-.8,3.56-2.84,3.56-10.13v-20.44c0-6.22-1.16-7.11-3.56-8.18v-.98l9.69-4.27.8.62v11.11c1.42-3.47,3.82-6.49,6.49-8.44,2.76-2.04,5.87-3.2,10.13-3.2,3.56,0,5.78.89,5.78,2.4,0,1.96-1.96,5.07-5.16,5.07-2.4,0-5.87-.98-11.11-2.49-2.58,1.87-5.78,6.84-6.04,11.11h-.09v17.69c0,7.29.8,9.33,3.56,10.13v1.16h-14.04v-1.16Z"/>
      <path class="cls-10" d="M416.95,60v-31.38h-5.69v-1.24l11.38-10.93h1.24v10.93h13.51l-.44,1.24h-13.07v31.38c0,6.04,2.49,8.35,6.31,8.35,2.49,0,5.6-1.16,8.53-4.62l.8.8c-3.82,4.35-8.35,8.18-13.6,8.18-5.6,0-8.98-3.47-8.98-12.71Z"/>
    </g>
  </g>
</svg>