<?xml version="1.0" encoding="UTF-8"?>
<svg id="Layer_2" xmlns="http://www.w3.org/2000/svg" version="1.1" viewBox="0 0 439.5 72.7">
  <!-- Generator: Adobe Illustrator 29.1.0, SVG Export Plug-In . SVG Version: 2.1.0 Build 142)  -->
  <defs>
    <style>
      .st0 {
        fill: #FFFFFF;
      }
    </style>
  </defs>
  <g id="Layer_1-2">
    <g>
      <path class="st0" d="M0,42C0,23,14.7,9,35.5,9s16.5,2.2,20,4.4l.4,10.6-.9.2c-3.5-8.1-11.9-13.5-22.5-13.5S7.5,20.1,7.5,38.2c0,16.7,10,32.7,28.5,32.7s17.1-5.1,20.5-14.7h1c0,0-1.4,11.6-1.4,11.6-4.2,2.3-12.6,4.8-22.6,4.8-20.4,0-33.5-11.4-33.5-30.8Z"/>
      <path class="st0" d="M64.6,70.7c2.7-.8,3.6-2.8,3.6-10.1V13.4c0-6.2-1.2-7.1-3.6-8.2v-1L74.3,0l.8.6v59.9c0,7.3.8,9.3,3.6,10.1v1.2h-14v-1.2h0Z"/>
      <path class="st0" d="M85.5,50.9c0-14.5,10.9-24.2,23.4-24.2s17.7,7.3,18,15.7h-34.8c-.2,1.3-.3,2.7-.3,4.1,0,12.2,7.6,20.5,19.1,20.5s11.7-3.1,15.8-7.7l.8.8c-4.5,6.2-11.5,12.5-21,12.5s-21.1-7.1-21.1-21.8h0ZM119.7,41.3c-.9-6-5.7-13-13.8-13-7.6,0-12.2,5.5-13.6,13h27.4Z"/>
      <path class="st0" d="M163.7,69.2v-16c-2.8,10.9-10.2,19.5-19,19.5s-12.4-4-12.4-11.6,9.3-12.7,19.9-15.6l11.6-3.1c-.4-8.6-4.9-12.6-12.4-12.6s-10.5,2.5-14.9,7.9l-.8-.7c5.1-6.3,11.6-10.1,19.3-10.1s15.7,6,15.7,16v17.8c0,7.3.8,9.3,3.6,10.1v1.2h-7.7c-1.8,0-2.7-1-2.7-2.7h0ZM148,67.5c9.5,0,15.6-12,15.7-21.3v-2.7l-11.2,3c-6.6,1.9-13.7,4.8-13.6,12.1,0,5.8,4,8.9,9.1,8.9h0Z"/>
      <path class="st0" d="M179.1,70.7c2.8-.8,3.6-2.8,3.6-10.1v-20.4c0-6.2-1.2-7.1-3.6-8.2v-1l9.7-4.3.8.6v11.1c1.4-3.5,3.8-6.5,6.5-8.4,2.8-2,5.9-3.2,10.1-3.2s5.8.9,5.8,2.4-2,5.1-5.2,5.1-5.9-1-11.1-2.5c-2.6,1.9-5.8,6.8-6,11.1h0v17.7c0,7.3.8,9.3,3.6,10.1v1.2h-14v-1.2h0Z"/>
      <path class="st0" d="M218.1,70.7c2.7-.8,3.6-2.8,3.6-10.1V20.9c0-7.3-.9-9.3-3.6-10.1v-1.2h14.4v1.2c-2.8.8-3.6,2.8-3.6,10.1v17.2h33.9v-17.2c0-7.3-.9-9.3-3.6-10.1v-1.2h14.4v1.2c-2.8.8-3.6,2.8-3.6,10.1v39.6c0,7.3.8,9.3,3.6,10.1v1.2h-14.4v-1.2c2.7-.8,3.6-2.8,3.6-10.1v-21h-33.9v21c0,7.3.8,9.3,3.6,10.1v1.2h-14.4v-1.2h0Z"/>
      <path class="st0" d="M281,50.9c0-14.5,10.9-24.2,23.4-24.2s17.7,7.3,18,15.7h-34.8c-.2,1.3-.3,2.7-.3,4.1,0,12.2,7.6,20.5,19.1,20.5s11.7-3.1,15.8-7.7l.8.8c-4.5,6.2-11.5,12.5-21,12.5s-21.1-7.1-21.1-21.8h0ZM315.3,41.3c-.9-6-5.7-13-13.8-13-7.5,0-12.2,5.5-13.6,13h27.4Z"/>
      <path class="st0" d="M359.3,69.2v-16c-2.8,10.9-10.2,19.5-19,19.5s-12.4-4-12.4-11.6,9.3-12.7,19.9-15.6l11.5-3.1c-.4-8.6-4.9-12.6-12.4-12.6s-10.5,2.5-14.9,7.9l-.8-.7c5.1-6.3,11.5-10.1,19.3-10.1s15.7,6,15.7,16v17.8c0,7.3.8,9.3,3.6,10.1v1.2h-7.7c-1.8,0-2.7-1-2.7-2.7h0ZM343.5,67.5c9.5,0,15.6-12,15.7-21.3v-2.7l-11.2,3c-6.6,1.9-13.7,4.8-13.6,12.1,0,5.8,4,8.9,9.1,8.9Z"/>
      <path class="st0" d="M374.6,70.7c2.8-.8,3.6-2.8,3.6-10.1v-20.4c0-6.2-1.2-7.1-3.6-8.2v-1l9.7-4.3.8.6v11.1c1.4-3.5,3.8-6.5,6.5-8.4,2.8-2,5.9-3.2,10.1-3.2s5.8.9,5.8,2.4-2,5.1-5.2,5.1-5.9-1-11.1-2.5c-2.6,1.9-5.8,6.8-6,11.1h0v17.7c0,7.3.8,9.3,3.6,10.1v1.2h-14v-1.2h0Z"/>
      <path class="st0" d="M417,60v-31.4h-5.7v-1.2l11.4-10.9h1.2v10.9h13.5l-.4,1.2h-13.1v31.4c0,6,2.5,8.3,6.3,8.3s5.6-1.2,8.5-4.6l.8.8c-3.8,4.3-8.4,8.2-13.6,8.2s-9-3.5-9-12.7h0Z"/>
    </g>
  </g>
</svg>